<svg width="25" height="23" viewBox="0 0 25 23" fill="none" xmlns="http://www.w3.org/2000/svg">
<g clip-path="url(#clip0_322_4)">
<path d="M12.4958 22.5724C10.5836 22.5724 4.23837 19.1359 1.13406 12.7543C-0.316681 9.76819 -0.378767 6.61012 0.966432 4.08859C1.97844 2.19129 3.68787 0.930526 5.656 0.631708C8.51817 0.197807 10.9478 2.1913 12.5082 4.53272C14.4019 1.71851 16.7384 0.398384 19.3212 0.697202C21.2644 0.92234 22.9677 2.11557 23.9962 3.97193C25.3828 6.47709 25.3332 9.76 23.8638 12.7564C20.5236 19.5576 14.3067 22.5724 12.502 22.5724C12.502 22.5724 12.5 22.5724 12.4979 22.5724H12.4958ZM12.4958 20.935C13.781 20.935 19.3625 18.1658 22.3696 12.0421C23.6072 9.52258 23.6713 6.80047 22.5413 4.75991C21.7736 3.37429 20.5298 2.48602 19.1266 2.32433C16.3472 2.00095 14.3812 4.43243 13.2243 6.52826L12.4751 7.88317L11.7611 6.50984C10.5608 4.2032 8.394 1.87406 5.90642 2.25065C4.46188 2.46965 3.19532 3.41727 2.42959 4.85201C1.33274 6.91099 1.4031 9.53077 2.62413 12.0441C5.507 17.9755 11.4341 20.935 12.4937 20.935H12.4958Z" fill="#CACACA"/>
</g>
<defs>
<clipPath id="clip0_322_4">
<rect width="25" height="22" fill="white" transform="translate(0 0.572571)"/>
</clipPath>
</defs>
</svg>
