<svg width="23" height="25" viewBox="0 0 23 25" fill="none" xmlns="http://www.w3.org/2000/svg">
<g clip-path="url(#clip0_322_2)">
<path d="M18.7 15.8562C17.3487 15.8562 16.144 16.4914 15.3544 17.4835L8.3986 13.8844C8.52884 13.4698 8.59804 13.0305 8.59804 12.5726C8.59804 12.1147 8.52681 11.6754 8.3986 11.2608L15.3544 7.6616C16.144 8.65164 17.3487 9.28897 18.7 9.28897C21.0708 9.28897 23 7.33366 23 4.93077C23 2.52788 21.0708 0.572571 18.7 0.572571C16.3291 0.572571 14.3999 2.52788 14.3999 4.93077C14.3999 5.44641 14.4935 5.94143 14.6563 6.40138L7.74536 9.97786C6.96187 8.90946 5.71032 8.21437 4.298 8.21437C1.92922 8.21231 0 10.1676 0 12.5705C0 14.9734 1.92922 16.9287 4.30004 16.9287C5.71235 16.9287 6.96187 16.2336 7.74739 15.1652L14.6584 18.7438C14.4956 19.2037 14.3999 19.6987 14.3999 20.2144C14.3999 22.6173 16.3291 24.5726 18.7 24.5726C21.0708 24.5726 23 22.6173 23 20.2144C23 17.8115 21.0708 15.8562 18.7 15.8562ZM15.8245 4.93077C15.8245 3.32403 17.1147 2.01637 18.7 2.01637C20.2853 2.01637 21.5755 3.32403 21.5755 4.93077C21.5755 6.53751 20.2853 7.84517 18.7 7.84517C17.9043 7.84517 17.1839 7.51516 16.6629 6.98508C16.3271 6.6427 16.0748 6.21575 15.9384 5.73929C15.8652 5.48354 15.8245 5.21334 15.8245 4.93283V4.93077ZM4.30004 15.4849C2.71474 15.4849 1.42453 14.1772 1.42453 12.5705C1.42453 10.9638 2.71474 9.65611 4.30004 9.65611C5.15679 9.65611 5.92603 10.0397 6.45311 10.6461C6.7665 11.0071 6.99443 11.4464 7.10228 11.9311C7.14909 12.1374 7.17351 12.3519 7.17351 12.5705C7.17351 12.7891 7.14705 13.0036 7.10228 13.2099C6.99443 13.6946 6.7665 14.1339 6.45311 14.4949C5.92603 15.0992 5.15679 15.4849 4.30004 15.4849ZM18.7 23.1288C17.1147 23.1288 15.8245 21.8211 15.8245 20.2144C15.8245 19.9339 15.8652 19.6637 15.9384 19.4058C16.0748 18.9294 16.3251 18.5024 16.6629 18.1601C17.1839 17.63 17.9043 17.3 18.7 17.3C20.2853 17.3 21.5755 18.6076 21.5755 20.2144C21.5755 21.8211 20.2853 23.1288 18.7 23.1288Z" fill="#CACACA"/>
</g>
<defs>
<clipPath id="clip0_322_2">
<rect width="23" height="24" fill="white" transform="translate(0 0.572571)"/>
</clipPath>
</defs>
</svg>
